{"glyphs":{"0":{"ha":1485,"x_min":71,"x_max":1422,"o":"m 840 1049 q 979 1038 918 1049 q 1089 1010 1040 1028 q 1176 969 1138 993 q 1246 918 1214 946 q 1368 754 1325 851 q 1417 552 1411 657 q 1390 346 1422 447 q 1286 168 1357 244 q 1199 95 1247 126 q 1097 42 1151 64 q 987 10 1043 21 q 875 -1 931 -1 l 678 -1 q 547 6 611 -1 q 424 33 483 14 q 310 84 364 51 q 208 168 256 117 q 103 346 136 244 q 76 552 71 447 q 125 754 82 657 q 247 918 168 851 q 409 1011 310 974 q 657 1049 508 1049 l 840 1049 m 846 206 q 1023 237 953 208 q 1135 311 1093 265 q 1194 414 1176 353 q 1210 539 1213 475 q 1183 662 1207 603 q 1113 758 1158 721 q 1001 817 1069 796 q 833 838 933 838 l 661 838 q 492 817 560 838 q 381 758 425 796 q 312 662 336 721 q 284 539 288 603 q 299 414 281 475 q 357 311 317 353 q 471 237 400 265 q 650 206 542 208 q 846 206 743 201 z "},"1":{"ha":556,"x_min":71,"x_max":493,"o":"m 493 1043 l 493 -3 l 283 -3 l 283 839 l 71 839 l 71 840 l 71 1043 l 493 1043 z "},"2":{"ha":1144,"x_min":64,"x_max":1067,"o":"m 121 1044 q 287 1044 208 1044 q 442 1044 365 1044 q 596 1043 518 1043 q 761 1043 674 1043 q 931 997 863 1043 q 1033 881 999 950 q 1067 731 1067 811 q 1033 581 1067 650 q 931 465 1000 511 q 761 418 863 418 q 565 417 661 418 q 374 417 469 417 q 299 388 328 417 q 271 317 271 360 l 271 207 q 444 206 350 207 q 635 206 539 206 q 826 205 732 206 q 1000 204 921 204 l 1000 0 l 64 0 l 64 321 l 64 322 q 88 445 65 389 q 151 542 111 501 q 248 605 192 582 q 374 628 304 628 l 761 628 q 836 660 811 628 q 861 730 861 692 q 836 800 861 768 q 761 832 811 832 q 595 833 674 832 q 441 833 517 833 q 287 834 365 833 q 121 835 208 835 l 121 1044 l 121 1044 z "},"3":{"ha":1083,"x_min":72,"x_max":1015,"o":"m 72 1044 l 699 1044 q 821 1019 765 1044 q 918 951 876 993 q 984 855 960 910 q 1012 742 1008 800 q 997 627 1015 685 q 932 522 978 569 q 992 410 974 469 q 1006 292 1010 350 q 980 181 1003 233 q 917 88 957 128 q 822 23 878 47 q 699 -1 767 -1 l 72 -1 l 72 204 l 699 204 q 775 238 749 204 q 801 310 801 271 q 776 383 801 350 q 699 417 750 417 l 329 417 l 329 624 l 699 624 q 755 640 732 624 q 790 678 778 656 q 802 729 801 701 q 791 780 803 757 q 756 819 779 803 q 699 835 733 835 l 72 835 l 72 1044 z "},"4":{"ha":1069,"x_min":76,"x_max":997,"o":"m 997 1043 l 997 0 l 789 0 l 789 421 l 400 421 q 274 447 333 421 q 172 516 215 472 q 102 619 128 560 q 76 744 76 678 l 76 1043 l 285 1043 l 285 744 q 319 663 285 697 q 400 629 353 629 l 789 629 l 789 1043 l 790 1043 l 997 1043 z "},"5":{"ha":1146,"x_min":74,"x_max":1074,"o":"m 132 207 q 296 208 218 207 q 449 208 374 208 q 602 209 525 208 q 767 210 679 210 q 844 242 818 210 q 869 313 869 274 q 844 383 869 351 q 767 415 818 415 l 379 415 q 256 438 311 415 q 160 503 200 461 q 98 601 121 544 q 74 724 75 657 l 74 725 l 74 1043 l 1010 1043 l 1010 833 q 837 833 931 833 q 646 832 743 832 q 455 831 549 832 q 281 831 361 831 l 281 731 q 308 656 281 686 q 379 626 335 626 q 574 626 478 626 q 767 625 671 625 q 938 578 869 625 q 1040 463 1006 532 q 1074 313 1074 394 q 1040 163 1074 232 q 938 48 1006 94 q 767 1 869 1 q 602 1 681 1 q 448 1 524 1 q 294 0 372 0 q 132 0 217 0 l 132 207 z "},"6":{"ha":1176,"x_min":65,"x_max":1118,"o":"m 374 -1 q 240 25 297 -1 q 143 95 182 51 q 85 195 104 139 q 66 310 67 251 q 83 424 65 368 q 139 525 101 481 q 85 626 103 569 q 69 740 68 682 q 90 853 69 799 q 148 951 110 908 q 243 1021 186 994 q 376 1047 300 1047 q 540 1047 463 1047 q 694 1048 618 1047 q 847 1049 769 1049 q 1013 1049 925 1049 l 1013 839 q 847 838 925 839 q 694 838 769 838 q 541 837 618 838 q 376 836 464 836 q 299 803 325 836 q 274 732 274 771 q 299 660 274 693 q 376 628 325 628 l 808 625 q 980 578 911 625 q 1083 463 1049 532 q 1118 312 1118 393 q 1083 161 1118 231 q 980 45 1049 92 q 808 -1 911 -1 l 374 -1 m 808 207 q 885 240 860 207 q 910 311 910 272 q 885 383 910 350 q 808 415 860 415 l 374 415 q 297 383 322 415 q 271 311 271 350 q 297 240 271 272 q 374 207 322 207 l 808 207 z "},"7":{"ha":953,"x_min":60,"x_max":867,"o":"m 867 1043 l 867 0 l 658 0 l 658 833 l 60 833 l 60 835 l 60 1043 l 867 1043 z "},"8":{"ha":1186,"x_min":63,"x_max":1114,"o":"m 385 -1 q 254 24 311 -1 q 159 92 197 50 q 101 189 121 135 q 78 301 81 243 q 93 414 76 358 q 144 515 110 469 q 84 615 104 558 q 63 730 64 671 q 82 845 63 789 q 140 945 101 901 q 237 1016 179 989 q 372 1043 294 1043 l 806 1043 q 939 1017 882 1043 q 1034 948 996 990 q 1092 850 1072 906 q 1113 737 1113 794 q 1096 623 1114 679 q 1042 522 1078 567 q 1096 422 1078 478 q 1113 307 1114 365 q 1092 194 1113 249 q 1034 95 1072 139 q 939 25 996 51 q 806 -1 882 -1 l 385 -1 m 372 836 q 295 803 321 836 q 269 732 269 771 q 295 660 269 693 q 372 628 321 628 l 806 628 q 881 660 856 628 q 907 732 907 693 q 881 803 907 771 q 806 836 856 836 l 372 836 m 806 207 q 881 240 856 207 q 907 311 907 272 q 881 383 907 350 q 806 415 856 415 l 385 415 q 309 383 335 415 q 283 311 283 350 q 309 240 283 272 q 385 207 335 207 l 806 207 z "},"9":{"ha":1193,"x_min":68,"x_max":1119,"o":"m 813 1043 q 947 1017 889 1043 q 1042 947 1004 990 q 1100 849 1081 904 q 1119 736 1119 794 q 1101 622 1119 678 q 1044 521 1082 565 q 1099 420 1081 476 q 1116 306 1117 364 q 1096 193 1115 249 q 1038 94 1076 138 q 942 25 999 51 q 808 -1 885 -1 l 172 -1 l 172 206 q 338 206 260 206 q 491 206 415 206 q 644 207 567 207 q 808 207 722 207 q 885 240 860 207 q 911 311 911 272 q 885 383 911 350 q 808 415 860 415 l 376 418 q 205 465 274 418 q 102 581 136 511 q 68 731 68 650 q 102 881 68 811 q 205 997 136 950 q 376 1043 274 1043 l 813 1043 m 376 836 q 319 821 342 836 q 285 783 297 806 q 274 733 274 760 q 285 683 274 706 q 319 644 297 660 q 376 629 342 629 l 813 629 q 869 644 846 629 q 903 683 892 660 q 914 733 914 706 q 903 783 914 760 q 869 821 892 806 q 813 836 846 836 l 376 836 z "},"\u0000":{"ha":0,"x_min":0,"x_max":0,"o":""},"\r":{"ha":485,"x_min":0,"x_max":0,"o":""}," ":{"ha":485,"x_min":0,"x_max":0,"o":""},"\\":{"ha":497,"x_min":49,"x_max":446,"o":"m 256 1049 l 446 -3 l 239 -3 l 49 1049 l 256 1049 z "},"Z":{"ha":1194,"x_min":71,"x_max":1125,"o":"m 782 719 q 851 763 828 742 q 868 802 874 785 q 826 829 863 819 q 721 838 790 839 l 132 838 l 132 1043 l 789 1043 q 931 1030 869 1046 q 1035 984 993 1014 q 1101 912 1078 954 q 1125 821 1124 869 q 1106 726 1125 768 q 1047 647 1086 683 q 949 575 1008 610 q 811 503 890 540 q 644 429 726 464 q 476 357 561 394 q 385 308 426 335 q 332 258 344 281 q 345 219 319 235 q 456 207 371 204 l 1125 208 l 1125 1 q 1002 1 1079 1 q 837 1 925 1 q 658 1 749 1 q 494 1 567 1 q 374 2 421 1 q 328 3 328 3 q 195 16 246 0 q 116 62 144 32 q 79 133 88 92 q 74 224 71 175 q 86 304 76 269 q 122 370 96 339 q 197 433 149 401 q 324 501 244 464 l 782 719 z "},"Y":{"ha":1264,"x_min":19,"x_max":1247,"o":"m 1247 1043 l 981 482 q 874 344 938 397 q 738 271 811 292 l 738 0 l 528 0 l 528 271 q 393 342 457 290 q 289 482 329 394 l 19 1043 l 249 1043 l 472 571 q 543 488 500 515 q 633 460 586 460 q 723 488 679 460 q 796 571 767 515 l 1018 1043 l 1247 1043 z "},"W":{"ha":2039,"x_min":15,"x_max":2025,"o":"m 1339 1043 l 1135 610 l 1235 404 q 1302 290 1272 326 q 1361 253 1332 253 q 1422 293 1390 254 q 1492 407 1453 332 l 1793 1043 l 2025 1043 l 1636 226 q 1509 57 1581 114 q 1363 0 1438 0 q 1216 56 1288 0 q 1089 226 1144 113 l 1018 369 l 953 226 q 826 57 897 114 q 679 0 754 0 q 532 56 604 0 q 406 226 460 113 l 15 1043 l 246 1043 l 549 404 q 618 290 588 326 q 678 253 649 253 q 739 293 708 254 q 808 407 769 332 l 906 610 l 700 1043 l 928 1043 l 1018 851 l 1113 1043 l 1339 1043 z "},"U":{"ha":1194,"x_min":64,"x_max":1124,"o":"m 1124 1043 l 1124 515 q 1078 287 1124 385 q 958 125 1032 189 q 788 29 883 61 q 594 -1 693 -3 q 399 33 494 0 q 230 131 304 65 q 110 292 156 196 q 64 515 64 388 l 64 1043 l 271 1043 l 271 515 q 319 338 271 408 q 438 232 367 267 q 593 199 510 197 q 748 236 676 200 q 867 342 819 272 q 915 515 915 413 l 915 1043 l 1124 1043 z "},"T":{"ha":1164,"x_min":63,"x_max":1106,"o":"m 686 838 l 686 0 l 481 0 l 481 838 l 63 838 l 63 1043 l 1106 1043 l 1106 838 l 686 838 z "},"S":{"ha":1126,"x_min":60,"x_max":1054,"o":"m 996 838 q 833 838 910 838 q 681 837 756 838 q 528 836 606 836 q 365 836 451 836 q 309 821 332 836 q 275 783 286 806 q 264 733 264 760 q 275 683 264 706 q 309 644 286 660 q 365 629 332 629 l 749 629 q 918 583 850 629 q 1020 467 986 536 q 1054 315 1054 397 q 1020 164 1054 233 q 918 48 986 94 q 749 1 850 1 q 586 1 663 1 q 436 1 510 1 q 286 0 363 0 q 122 0 210 0 l 122 207 q 286 207 210 207 q 436 208 363 207 q 585 208 510 208 q 749 208 661 208 q 825 241 800 208 q 850 313 850 274 q 825 385 850 353 q 749 418 800 418 l 365 418 q 196 465 264 418 q 94 581 128 511 q 60 731 60 650 q 94 881 60 811 q 196 997 128 950 q 365 1043 264 1043 l 996 1043 l 996 838 z "},"R":{"ha":1129,"x_min":68,"x_max":1071,"o":"m 763 1043 q 904 1013 844 1043 q 1001 933 964 982 q 1055 822 1039 883 q 1065 698 1071 760 q 1032 578 1060 636 q 954 482 1004 521 q 1010 369 992 429 q 1029 244 1028 308 l 1029 0 l 822 0 l 822 244 q 814 292 822 264 q 785 347 806 321 q 732 394 765 374 q 650 418 699 414 l 382 418 q 308 388 339 418 q 278 314 278 357 l 278 0 l 71 0 q 69 157 71 79 q 68 314 68 235 q 93 443 72 385 q 153 542 114 501 q 249 604 192 582 q 382 626 306 626 q 572 628 476 626 q 763 629 667 629 q 817 644 796 629 q 850 683 839 660 q 861 733 861 706 q 850 783 861 760 q 817 821 839 806 q 763 836 796 836 q 417 837 588 836 q 71 838 247 838 l 71 1043 l 763 1043 z "},"Q":{"ha":1197,"x_min":50,"x_max":1143,"o":"m 596 1063 q 808 1020 708 1063 q 982 906 907 978 q 1101 735 1058 833 q 1143 528 1143 638 q 1101 316 1143 414 q 982 143 1058 218 q 965 129 976 136 l 1047 -49 l 818 -49 l 788 21 q 694 -3 743 6 q 596 -12 646 -12 q 383 29 482 -12 q 210 143 285 71 q 92 316 135 218 q 50 528 50 414 q 92 735 50 638 q 210 906 135 833 q 383 1020 285 978 q 596 1063 482 1063 m 697 208 q 667 259 685 233 q 627 304 650 285 q 574 336 604 324 q 507 347 544 349 l 506 553 q 659 524 593 554 q 769 453 725 493 q 838 377 814 414 q 867 328 863 340 q 935 528 935 413 q 908 654 935 594 q 835 758 882 714 q 728 829 789 803 q 596 856 668 856 q 463 829 525 856 q 356 758 401 803 q 285 654 311 714 q 258 528 258 594 q 285 397 258 457 q 356 292 311 336 q 463 220 401 244 q 596 196 525 196 q 649 199 624 196 q 697 208 674 201 z "},"P":{"ha":1129,"x_min":64,"x_max":1058,"o":"m 753 1043 q 922 997 854 1043 q 1024 881 990 950 q 1058 731 1058 811 q 1024 581 1058 650 q 922 465 990 511 q 753 418 854 418 l 371 418 q 332 410 350 418 q 299 388 314 401 q 276 354 285 374 q 268 314 268 335 l 268 0 l 64 0 l 64 314 q 144 542 69 457 q 371 626 219 626 q 563 628 468 626 q 753 629 657 629 q 810 644 788 629 q 844 683 832 660 q 855 733 856 706 q 843 783 854 760 q 809 821 832 806 q 753 836 786 836 q 408 837 579 836 q 64 838 238 838 l 64 1043 l 753 1043 z "},"N":{"ha":1194,"x_min":79,"x_max":1125,"o":"m 799 344 q 843 275 821 297 q 883 258 865 253 q 910 300 900 264 q 919 407 921 336 l 917 1051 l 1122 1051 q 1122 935 1122 1006 q 1122 785 1122 864 q 1122 626 1122 706 q 1122 483 1122 547 q 1122 379 1122 419 q 1121 339 1121 339 q 1110 196 1125 258 q 1064 90 1094 133 q 992 24 1033 47 q 901 1 950 1 q 805 19 847 0 q 726 78 763 39 q 654 178 689 118 q 582 315 619 238 q 509 484 544 400 q 438 647 474 568 q 387 736 414 699 q 337 781 360 774 q 299 759 314 789 q 288 646 285 729 l 289 0 l 82 0 l 82 714 q 96 860 79 796 q 142 967 113 924 q 214 1033 172 1011 q 304 1051 256 1054 q 472 970 393 1044 q 624 738 550 896 l 799 344 z "},"L":{"ha":1028,"x_min":71,"x_max":960,"o":"m 71 1043 l 276 1043 l 278 1043 l 278 314 q 308 238 278 269 q 382 207 338 207 l 960 207 l 960 0 l 382 0 q 249 22 306 0 q 153 85 192 44 q 94 185 114 126 q 71 314 74 243 l 71 1043 z "},"M":{"ha":1678,"x_min":78,"x_max":1597,"o":"m 1594 425 q 1594 306 1594 367 q 1595 188 1594 244 q 1596 83 1596 132 q 1596 0 1596 35 l 1389 0 l 1389 646 q 1377 759 1392 729 q 1340 781 1363 789 q 1290 736 1317 774 q 1240 647 1263 699 l 951 0 l 950 0 l 725 0 l 722 0 l 433 647 q 384 736 411 699 q 334 781 357 774 q 297 759 311 789 q 285 646 282 729 l 286 0 l 79 0 q 79 117 79 46 q 79 267 79 188 q 79 426 79 346 q 80 569 79 506 q 81 674 81 633 q 82 714 81 714 q 94 860 78 796 q 140 967 110 924 q 211 1033 169 1011 q 301 1051 253 1054 q 468 970 390 1044 q 619 738 546 896 l 838 253 l 1054 738 q 1205 971 1129 897 q 1372 1051 1281 1044 q 1463 1033 1421 1054 q 1535 967 1504 1011 q 1581 860 1565 924 q 1594 714 1597 796 l 1594 425 z "},"K":{"ha":1151,"x_min":74,"x_max":1081,"o":"m 279 1043 l 279 626 l 700 626 q 783 651 750 631 q 837 697 817 671 q 866 752 857 724 q 875 800 875 781 l 875 1043 l 1081 1043 l 1081 800 q 1053 649 1078 722 q 971 519 1028 576 q 1053 394 1028 467 q 1081 244 1078 322 l 1081 0 l 875 0 l 875 244 q 866 292 875 264 q 837 347 857 321 q 783 394 817 374 q 700 418 750 414 l 279 418 l 279 0 l 74 0 l 74 1043 l 279 1043 z "},"J":{"ha":1031,"x_min":65,"x_max":953,"o":"m 953 314 q 928 185 949 243 q 869 85 907 126 q 774 22 831 44 q 642 0 717 0 l 65 0 l 65 207 l 642 207 q 715 238 685 207 q 746 314 746 269 l 746 1043 l 749 1043 l 953 1043 l 953 314 l 953 314 z "},"I":{"ha":358,"x_min":75,"x_max":282,"o":"m 282 1043 l 282 0 l 75 0 l 75 1043 l 282 1043 z "},"H":{"ha":1157,"x_min":76,"x_max":1075,"o":"m 994 526 q 1052 431 1031 482 q 1075 319 1074 379 l 1075 0 l 867 0 l 867 319 q 833 390 864 361 q 761 418 803 418 l 390 418 q 317 390 346 418 q 286 319 288 361 l 286 0 l 78 0 l 78 319 q 101 431 79 379 q 160 526 122 482 q 128 567 143 543 q 101 618 113 592 q 83 673 89 644 q 78 726 76 701 l 78 1043 l 286 1043 l 286 721 q 320 653 290 681 q 390 626 350 626 l 761 626 q 832 653 801 626 q 867 721 863 681 l 867 1043 l 1074 1043 l 1074 726 q 1069 673 1075 701 q 1052 618 1064 644 q 1026 567 1040 592 q 994 526 1011 543 z "},"G":{"ha":1207,"x_min":64,"x_max":1142,"o":"m 611 1063 q 790 1031 704 1063 q 947 946 876 1000 q 1068 817 1018 892 q 1142 658 1118 743 l 919 658 q 792 803 876 751 q 611 856 708 856 q 478 828 540 856 q 371 756 417 801 q 299 652 325 711 q 274 528 274 593 q 299 397 274 457 q 369 292 325 336 q 477 220 414 244 q 611 196 540 196 q 748 215 682 196 q 861 281 814 235 q 899 324 885 303 q 914 360 914 344 q 896 385 914 375 q 836 394 878 394 l 557 399 l 560 604 l 839 600 q 966 581 915 599 q 1049 535 1017 563 q 1097 474 1081 507 q 1119 415 1113 442 q 1126 369 1126 388 q 1126 350 1126 350 l 1124 -3 l 914 -3 l 914 79 q 772 11 849 35 q 611 -12 696 -12 q 399 29 497 -12 q 228 143 300 71 q 108 316 151 218 q 64 528 64 414 q 110 738 64 640 q 232 908 156 836 q 407 1021 308 979 q 611 1063 506 1063 z "},"@":{"ha":1485,"x_min":71,"x_max":1368,"o":"m 892 593 l 761 593 q 697 571 721 593 q 672 517 672 549 l 672 508 l 833 508 q 996 533 931 508 q 1094 594 1061 557 q 1126 673 1126 631 q 1094 752 1126 715 q 996 813 1061 789 q 833 838 931 838 l 661 838 q 492 817 560 838 q 381 758 425 796 q 312 662 336 721 q 284 539 288 603 q 299 414 281 475 q 357 311 317 353 q 471 237 400 265 q 650 206 542 208 q 691 206 658 206 q 773 205 724 206 q 883 204 822 204 q 1008 204 944 204 q 1132 204 1071 204 q 1242 204 1193 204 q 1326 204 1292 204 q 1368 204 1360 204 l 1368 -1 l 678 -1 q 547 6 611 -1 q 424 33 483 14 q 310 84 364 51 q 208 168 256 117 q 103 346 136 244 q 76 552 71 447 q 125 754 82 657 q 247 918 168 851 q 409 1011 310 974 q 657 1049 508 1049 l 840 1049 q 991 1036 926 1047 q 1107 1004 1056 1025 q 1238 925 1185 974 q 1322 817 1292 876 q 1356 694 1351 758 q 1338 567 1360 629 q 1269 451 1317 506 q 1146 360 1221 397 q 1017 315 1090 332 q 840 297 944 299 l 558 297 l 558 300 l 493 300 l 493 549 q 514 643 494 600 q 569 717 533 686 q 653 766 604 749 q 761 783 701 783 l 892 783 l 892 593 z "},"?":{"ha":1074,"x_min":58,"x_max":1003,"o":"m 58 1043 q 224 1043 146 1043 q 377 1042 301 1043 q 531 1042 453 1042 q 694 1042 608 1042 q 829 1015 771 1042 q 926 944 888 988 q 983 844 964 900 q 1003 730 1003 789 q 983 615 1003 671 q 926 516 964 560 q 829 445 888 472 q 694 418 771 418 q 649 418 663 418 q 631 418 635 418 q 627 417 626 418 q 624 417 628 417 q 606 417 619 417 q 560 417 592 417 q 519 413 539 417 q 485 398 500 408 q 464 369 471 388 q 461 324 457 351 l 254 324 q 256 442 251 388 q 291 538 261 497 q 384 602 321 579 q 560 628 447 625 l 694 628 q 752 643 729 628 q 786 681 775 658 q 797 729 797 703 q 786 778 797 756 q 752 815 775 800 q 694 831 729 831 q 531 831 608 831 q 377 832 453 832 q 224 833 301 832 q 58 833 146 833 l 58 1043 m 457 190 l 457 0 l 249 0 l 249 190 l 250 190 l 457 190 z "},"=":{"ha":890,"x_min":97,"x_max":817,"o":"m 817 514 l 97 514 l 97 722 l 817 722 l 817 721 l 817 514 m 817 208 l 97 208 l 97 417 l 817 417 l 817 415 l 817 208 z "},";":{"ha":357,"x_min":71,"x_max":279,"o":"m 279 636 l 279 442 l 71 442 l 71 636 l 72 636 l 279 636 m 279 193 l 279 0 l 161 -99 l 160 0 l 71 0 l 71 193 l 72 193 l 279 193 z "},".":{"ha":350,"x_min":71,"x_max":279,"o":"m 279 194 l 279 0 l 71 0 l 71 194 l 72 194 l 279 194 z "},"-":{"ha":890,"x_min":97,"x_max":817,"o":"m 817 419 l 97 419 l 97 628 l 817 628 l 817 626 l 817 419 z "},",":{"ha":350,"x_min":71,"x_max":279,"o":"m 279 193 l 279 0 l 161 -99 l 160 0 l 71 0 l 71 193 l 72 193 l 279 193 z "},"+":{"ha":890,"x_min":97,"x_max":817,"o":"m 353 164 l 353 419 l 97 419 l 97 628 l 353 628 l 353 883 l 561 883 l 561 628 l 817 628 l 817 419 l 561 419 l 561 164 l 353 164 z "},"(":{"ha":772,"x_min":71,"x_max":714,"o":"m 714 -1 l 678 -1 q 547 6 611 -1 q 424 33 483 14 q 310 84 364 51 q 208 168 256 117 q 103 346 136 244 q 76 552 71 447 q 125 754 82 657 q 247 918 168 851 q 409 1011 310 974 q 657 1049 508 1049 l 706 1049 l 706 838 l 661 838 q 492 817 560 838 q 381 758 425 796 q 312 662 336 721 q 284 539 288 603 q 299 414 281 475 q 357 311 317 353 q 471 237 400 265 q 650 206 542 208 q 681 204 665 204 q 713 204 697 204 l 714 -1 z "},")":{"ha":772,"x_min":67,"x_max":710,"o":"m 68 204 q 99 204 83 204 q 131 206 115 204 q 310 237 239 208 q 424 311 381 265 q 482 414 464 353 q 497 539 500 475 q 469 662 493 603 q 400 758 444 721 q 288 817 356 796 q 119 838 221 838 l 75 838 l 75 1049 l 124 1049 q 372 1011 272 1049 q 533 918 471 974 q 656 754 613 851 q 704 552 699 657 q 677 346 710 447 q 572 168 644 244 q 471 84 525 117 q 357 33 417 51 q 233 6 297 14 q 103 -1 169 -1 l 67 -1 l 68 204 z "},"'":{"ha":381,"x_min":54,"x_max":329,"o":"m 54 686 l 119 1049 l 328 1049 l 329 1049 l 264 686 l 54 686 z "},"&":{"ha":1265,"x_min":65,"x_max":1204,"o":"m 989 -1 l 978 43 q 901 10 943 22 q 808 -1 858 -1 l 374 -1 q 240 25 297 -1 q 143 95 182 51 q 85 195 104 139 q 66 310 67 251 q 83 424 65 368 q 139 525 101 481 q 85 626 103 569 q 69 740 68 682 q 90 853 69 799 q 148 951 110 908 q 243 1021 186 994 q 376 1047 300 1047 q 540 1047 463 1047 q 694 1048 618 1047 q 847 1049 769 1049 q 1013 1049 925 1049 l 1013 839 q 847 838 925 839 q 694 838 769 838 q 541 837 618 838 q 376 836 464 836 q 299 803 325 836 q 274 732 274 771 q 299 660 274 693 q 376 628 325 628 l 461 628 l 1181 628 l 1181 419 l 1101 419 l 1204 -1 l 989 -1 m 808 207 q 883 241 858 208 q 908 313 908 274 q 882 383 907 351 q 808 415 857 415 l 374 415 q 297 383 322 415 q 271 311 271 350 q 297 240 271 272 q 374 207 322 207 l 808 207 z "},"%":{"ha":1492,"x_min":56,"x_max":1419,"o":"m 1010 1040 l 1011 1040 l 656 -3 l 447 -3 l 801 1040 l 1010 1040 m 631 681 q 610 561 631 606 q 560 486 590 517 q 469 426 522 447 q 359 403 417 406 q 246 417 301 401 q 149 467 190 432 q 81 557 104 503 q 56 664 57 611 l 56 758 q 74 881 56 824 q 149 985 92 939 q 246 1035 190 1019 q 359 1048 301 1050 q 469 1025 417 1046 q 560 965 522 1004 q 610 888 590 935 q 631 768 631 840 l 631 681 m 215 690 q 228 628 217 653 q 257 589 239 604 q 299 567 274 574 q 349 562 324 561 q 399 572 375 563 q 438 596 422 581 q 461 636 453 613 q 469 694 469 660 l 469 756 q 461 815 469 792 q 438 856 453 839 q 399 879 422 871 q 349 888 375 888 q 299 883 324 889 q 257 863 274 876 q 228 822 239 847 q 215 760 217 797 q 215 690 213 728 m 1419 278 q 1399 158 1419 203 q 1349 83 1379 114 q 1258 24 1311 44 q 1148 1 1206 3 q 1035 14 1090 -1 q 938 64 979 29 q 869 154 893 100 q 844 261 846 208 l 844 356 q 863 478 844 421 q 938 582 881 536 q 1035 632 979 617 q 1148 645 1090 647 q 1258 622 1206 643 q 1349 563 1311 601 q 1399 485 1379 532 q 1419 365 1419 438 l 1419 278 m 1004 288 q 1017 226 1006 250 q 1046 186 1028 201 q 1088 165 1063 171 q 1138 159 1113 158 q 1188 169 1164 160 q 1226 193 1211 178 q 1250 233 1242 210 q 1258 292 1258 257 l 1258 353 q 1250 413 1258 389 q 1226 453 1242 436 q 1188 476 1211 468 q 1138 485 1164 485 q 1088 480 1113 486 q 1046 460 1063 474 q 1017 419 1028 444 q 1004 357 1006 394 q 1004 288 1001 325 z "},"#":{"ha":1232,"x_min":69,"x_max":1160,"o":"m 819 254 l 732 -3 l 524 -3 l 611 254 l 411 254 l 324 -3 l 115 -3 l 203 254 l 69 254 l 69 463 l 274 463 l 317 590 l 133 590 l 133 799 l 388 799 l 469 1040 l 679 1040 l 596 799 l 796 799 l 878 1040 l 1088 1040 l 1004 799 l 1160 799 l 1160 590 l 933 590 l 890 463 l 1096 463 l 1096 254 l 819 254 m 482 463 l 682 463 l 725 590 l 525 590 l 482 463 z "},"\"":{"ha":699,"x_min":54,"x_max":629,"o":"m 54 686 l 119 1049 l 328 1049 l 329 1049 l 264 686 l 54 686 m 354 686 l 419 1049 l 628 1049 l 629 1049 l 564 686 l 354 686 z "},"!":{"ha":371,"x_min":78,"x_max":286,"o":"m 286 190 l 286 0 l 78 0 l 78 190 l 79 190 l 286 190 m 286 1043 l 286 324 l 78 324 l 78 1043 l 79 1043 l 286 1043 z "},"|":{"ha":346,"x_min":67,"x_max":276,"o":"m 276 1136 l 276 -94 l 67 -94 l 67 1136 l 69 1136 l 276 1136 z "},"z":{"ha":1194,"x_min":71,"x_max":1125,"o":"m 782 719 q 851 763 828 742 q 868 802 874 785 q 826 829 863 819 q 721 838 790 839 l 132 838 l 132 1043 l 789 1043 q 931 1030 869 1046 q 1035 984 993 1014 q 1101 912 1078 954 q 1125 821 1124 869 q 1106 726 1125 768 q 1047 647 1086 683 q 949 575 1008 610 q 811 503 890 540 q 644 429 726 464 q 476 357 561 394 q 385 308 426 335 q 332 258 344 281 q 345 219 319 235 q 456 207 371 204 l 1125 208 l 1125 1 q 1002 1 1079 1 q 837 1 925 1 q 658 1 749 1 q 494 1 567 1 q 374 2 421 1 q 328 3 328 3 q 195 16 246 0 q 116 62 144 32 q 79 133 88 92 q 74 224 71 175 q 86 304 76 269 q 122 370 96 339 q 197 433 149 401 q 324 501 244 464 l 782 719 z "},"y":{"ha":1264,"x_min":19,"x_max":1247,"o":"m 1247 1043 l 981 482 q 874 344 938 397 q 738 271 811 292 l 738 0 l 528 0 l 528 271 q 393 342 457 290 q 289 482 329 394 l 19 1043 l 249 1043 l 472 571 q 543 488 500 515 q 633 460 586 460 q 723 488 679 460 q 796 571 767 515 l 1018 1043 l 1247 1043 z "},"x":{"ha":1157,"x_min":56,"x_max":1117,"o":"m 1117 1043 l 931 657 q 885 583 911 617 q 831 526 858 550 q 885 463 858 497 q 931 388 911 428 l 1117 0 l 886 0 l 747 296 q 676 379 719 351 q 587 407 633 407 q 497 379 540 407 q 425 296 454 351 l 286 0 l 56 0 l 242 388 q 344 519 282 469 q 242 657 281 576 l 56 1043 l 286 1043 l 425 749 q 497 665 454 693 q 587 638 540 638 q 676 665 633 638 q 747 749 719 693 l 886 1043 l 1117 1043 z "},"w":{"ha":2039,"x_min":15,"x_max":2025,"o":"m 1339 1043 l 1135 610 l 1235 404 q 1302 290 1272 326 q 1361 253 1332 253 q 1422 293 1390 254 q 1492 407 1453 332 l 1793 1043 l 2025 1043 l 1636 226 q 1509 57 1581 114 q 1363 0 1438 0 q 1216 56 1288 0 q 1089 226 1144 113 l 1018 369 l 953 226 q 826 57 897 114 q 679 0 754 0 q 532 56 604 0 q 406 226 460 113 l 15 1043 l 246 1043 l 549 404 q 618 290 588 326 q 678 253 649 253 q 739 293 708 254 q 808 407 769 332 l 906 610 l 700 1043 l 928 1043 l 1018 851 l 1113 1043 l 1339 1043 z "},"v":{"ha":1503,"x_min":19,"x_max":1488,"o":"m 1488 1043 l 1101 226 q 1010 101 1065 151 q 889 26 954 51 q 754 0 824 0 q 620 25 685 0 q 500 100 556 50 q 408 226 444 150 l 19 1043 l 251 1043 l 594 318 q 666 235 624 263 q 754 207 708 207 q 842 235 800 207 q 914 318 885 263 l 1260 1043 l 1488 1043 z "},"u":{"ha":1194,"x_min":64,"x_max":1124,"o":"m 1124 1043 l 1124 515 q 1078 287 1124 385 q 958 125 1032 189 q 788 29 883 61 q 594 -1 693 -3 q 399 33 494 0 q 230 131 304 65 q 110 292 156 196 q 64 515 64 388 l 64 1043 l 271 1043 l 271 515 q 319 338 271 408 q 438 232 367 267 q 593 199 510 197 q 748 236 676 200 q 867 342 819 272 q 915 515 915 413 l 915 1043 l 1124 1043 z "},"t":{"ha":1164,"x_min":63,"x_max":1106,"o":"m 686 838 l 686 0 l 481 0 l 481 838 l 63 838 l 63 1043 l 1106 1043 l 1106 838 l 686 838 z "},"s":{"ha":1126,"x_min":60,"x_max":1054,"o":"m 996 838 q 833 838 910 838 q 681 837 756 838 q 528 836 606 836 q 365 836 451 836 q 309 821 332 836 q 275 783 286 806 q 264 733 264 760 q 275 683 264 706 q 309 644 286 660 q 365 629 332 629 l 749 629 q 918 583 850 629 q 1020 467 986 536 q 1054 315 1054 397 q 1020 164 1054 233 q 918 48 986 94 q 749 1 850 1 q 586 1 663 1 q 436 1 510 1 q 286 0 363 0 q 122 0 210 0 l 122 207 q 286 207 210 207 q 436 208 363 207 q 585 208 510 208 q 749 208 661 208 q 825 241 800 208 q 850 313 850 274 q 825 385 850 353 q 749 418 800 418 l 365 418 q 196 465 264 418 q 94 581 128 511 q 60 731 60 650 q 94 881 60 811 q 196 997 128 950 q 365 1043 264 1043 l 996 1043 l 996 838 z "},"r":{"ha":1129,"x_min":68,"x_max":1071,"o":"m 763 1043 q 904 1013 844 1043 q 1001 933 964 982 q 1055 822 1039 883 q 1065 698 1071 760 q 1032 578 1060 636 q 954 482 1004 521 q 1010 369 992 429 q 1029 244 1028 308 l 1029 0 l 822 0 l 822 244 q 814 292 822 264 q 785 347 806 321 q 732 394 765 374 q 650 418 699 414 l 382 418 q 308 388 339 418 q 278 314 278 357 l 278 0 l 71 0 q 69 157 71 79 q 68 314 68 235 q 93 443 72 385 q 153 542 114 501 q 249 604 192 582 q 382 626 306 626 q 572 628 476 626 q 763 629 667 629 q 817 644 796 629 q 850 683 839 660 q 861 733 861 706 q 850 783 861 760 q 817 821 839 806 q 763 836 796 836 q 417 837 588 836 q 71 838 247 838 l 71 1043 l 763 1043 z "},"q":{"ha":1197,"x_min":50,"x_max":1143,"o":"m 596 1063 q 808 1020 708 1063 q 982 906 907 978 q 1101 735 1058 833 q 1143 528 1143 638 q 1101 316 1143 414 q 982 143 1058 218 q 965 129 976 136 l 1047 -49 l 818 -49 l 788 21 q 694 -3 743 6 q 596 -12 646 -12 q 383 29 482 -12 q 210 143 285 71 q 92 316 135 218 q 50 528 50 414 q 92 735 50 638 q 210 906 135 833 q 383 1020 285 978 q 596 1063 482 1063 m 697 208 q 667 259 685 233 q 627 304 650 285 q 574 336 604 324 q 507 347 544 349 l 506 553 q 659 524 593 554 q 769 453 725 493 q 838 377 814 414 q 867 328 863 340 q 935 528 935 413 q 908 654 935 594 q 835 758 882 714 q 728 829 789 803 q 596 856 668 856 q 463 829 525 856 q 356 758 401 803 q 285 654 311 714 q 258 528 258 594 q 285 397 258 457 q 356 292 311 336 q 463 220 401 244 q 596 196 525 196 q 649 199 624 196 q 697 208 674 201 z "},"p":{"ha":1129,"x_min":64,"x_max":1058,"o":"m 753 1043 q 922 997 854 1043 q 1024 881 990 950 q 1058 731 1058 811 q 1024 581 1058 650 q 922 465 990 511 q 753 418 854 418 l 371 418 q 332 410 350 418 q 299 388 314 401 q 276 354 285 374 q 268 314 268 335 l 268 0 l 64 0 l 64 314 q 144 542 69 457 q 371 626 219 626 q 563 628 468 626 q 753 629 657 629 q 810 644 788 629 q 844 683 832 660 q 855 733 856 706 q 843 783 854 760 q 809 821 832 806 q 753 836 786 836 q 408 837 579 836 q 64 838 238 838 l 64 1043 l 753 1043 z "},"o":{"ha":1181,"x_min":42,"x_max":1132,"o":"m 588 1063 q 799 1019 700 1063 q 972 901 897 975 q 1089 731 1046 828 q 1132 528 1132 635 q 1088 315 1132 414 q 968 144 1043 217 q 794 29 893 71 q 588 -12 696 -12 q 373 31 472 -12 q 200 149 274 75 q 84 321 126 222 q 42 528 42 419 q 87 739 42 642 q 208 908 132 836 q 382 1022 283 981 q 588 1063 481 1063 m 588 856 q 456 829 518 856 q 348 758 394 803 q 274 654 301 714 q 247 528 247 594 q 276 393 247 454 q 352 288 304 332 q 461 220 400 244 q 588 196 522 196 q 720 222 658 196 q 828 294 782 249 q 900 399 874 339 q 926 528 926 460 q 897 659 926 599 q 820 763 868 719 q 711 831 772 807 q 588 856 650 856 z "},"n":{"ha":1194,"x_min":79,"x_max":1125,"o":"m 799 344 q 843 275 821 297 q 883 258 865 253 q 910 300 900 264 q 919 407 921 336 l 917 1051 l 1122 1051 q 1122 935 1122 1006 q 1122 785 1122 864 q 1122 626 1122 706 q 1122 483 1122 547 q 1122 379 1122 419 q 1121 339 1121 339 q 1110 196 1125 258 q 1064 90 1094 133 q 992 24 1033 47 q 901 1 950 1 q 805 19 847 0 q 726 78 763 39 q 654 178 689 118 q 582 315 619 238 q 509 484 544 400 q 438 647 474 568 q 387 736 414 699 q 337 781 360 774 q 299 759 314 789 q 288 646 285 729 l 289 0 l 82 0 l 82 714 q 96 860 79 796 q 142 967 113 924 q 214 1033 172 1011 q 304 1051 256 1054 q 472 970 393 1044 q 624 738 550 896 l 799 344 z "},"m":{"ha":1678,"x_min":78,"x_max":1597,"o":"m 1594 425 q 1594 306 1594 367 q 1595 188 1594 244 q 1596 83 1596 132 q 1596 0 1596 35 l 1389 0 l 1389 646 q 1377 759 1392 729 q 1340 781 1363 789 q 1290 736 1317 774 q 1240 647 1263 699 l 951 0 l 950 0 l 725 0 l 722 0 l 433 647 q 384 736 411 699 q 334 781 357 774 q 297 759 311 789 q 285 646 282 729 l 286 0 l 79 0 q 79 117 79 46 q 79 267 79 188 q 79 426 79 346 q 80 569 79 506 q 81 674 81 633 q 82 714 81 714 q 94 860 78 796 q 140 967 110 924 q 211 1033 169 1011 q 301 1051 253 1054 q 468 970 390 1044 q 619 738 546 896 l 838 253 l 1054 738 q 1205 971 1129 897 q 1372 1051 1281 1044 q 1463 1033 1421 1054 q 1535 967 1504 1011 q 1581 860 1565 924 q 1594 714 1597 796 l 1594 425 z "},"l":{"ha":1028,"x_min":71,"x_max":960,"o":"m 71 1043 l 276 1043 l 278 1043 l 278 314 q 308 238 278 269 q 382 207 338 207 l 960 207 l 960 0 l 382 0 q 249 22 306 0 q 153 85 192 44 q 94 185 114 126 q 71 314 74 243 l 71 1043 z "},"k":{"ha":1151,"x_min":74,"x_max":1081,"o":"m 279 1043 l 279 626 l 700 626 q 783 651 750 631 q 837 697 817 671 q 866 752 857 724 q 875 800 875 781 l 875 1043 l 1081 1043 l 1081 800 q 1053 649 1078 722 q 971 519 1028 576 q 1053 394 1028 467 q 1081 244 1078 322 l 1081 0 l 875 0 l 875 244 q 866 292 875 264 q 837 347 857 321 q 783 394 817 374 q 700 418 750 414 l 279 418 l 279 0 l 74 0 l 74 1043 l 279 1043 z "},"j":{"ha":1031,"x_min":65,"x_max":953,"o":"m 953 314 q 928 185 949 243 q 869 85 907 126 q 774 22 831 44 q 642 0 717 0 l 65 0 l 65 207 l 642 207 q 715 238 685 207 q 746 314 746 269 l 746 1043 l 749 1043 l 953 1043 l 953 314 l 953 314 z "},"i":{"ha":358,"x_min":75,"x_max":282,"o":"m 282 1043 l 282 0 l 75 0 l 75 1043 l 282 1043 z "},"h":{"ha":1157,"x_min":76,"x_max":1075,"o":"m 994 526 q 1052 431 1031 482 q 1075 319 1074 379 l 1075 0 l 867 0 l 867 319 q 833 390 864 361 q 761 418 803 418 l 390 418 q 317 390 346 418 q 286 319 288 361 l 286 0 l 78 0 l 78 319 q 101 431 79 379 q 160 526 122 482 q 128 567 143 543 q 101 618 113 592 q 83 673 89 644 q 78 726 76 701 l 78 1043 l 286 1043 l 286 721 q 320 653 290 681 q 390 626 350 626 l 761 626 q 832 653 801 626 q 867 721 863 681 l 867 1043 l 1074 1043 l 1074 726 q 1069 673 1075 701 q 1052 618 1064 644 q 1026 567 1040 592 q 994 526 1011 543 z "},"g":{"ha":1207,"x_min":64,"x_max":1142,"o":"m 611 1063 q 790 1031 704 1063 q 947 946 876 1000 q 1068 817 1018 892 q 1142 658 1118 743 l 919 658 q 792 803 876 751 q 611 856 708 856 q 478 828 540 856 q 371 756 417 801 q 299 652 325 711 q 274 528 274 593 q 299 397 274 457 q 369 292 325 336 q 477 220 414 244 q 611 196 540 196 q 748 215 682 196 q 861 281 814 235 q 899 324 885 303 q 914 360 914 344 q 896 385 914 375 q 836 394 878 394 l 557 399 l 560 604 l 839 600 q 966 581 915 599 q 1049 535 1017 563 q 1097 474 1081 507 q 1119 415 1113 442 q 1126 369 1126 388 q 1126 350 1126 350 l 1124 -3 l 914 -3 l 914 79 q 772 11 849 35 q 611 -12 696 -12 q 399 29 497 -12 q 228 143 300 71 q 108 316 151 218 q 64 528 64 414 q 110 738 64 640 q 232 908 156 836 q 407 1021 308 979 q 611 1063 506 1063 z "},"f":{"ha":1049,"x_min":76,"x_max":965,"o":"m 965 838 l 81 838 l 81 1043 l 965 1043 l 965 838 m 76 314 q 101 443 81 385 q 161 542 122 501 q 257 604 200 582 q 390 626 314 626 l 965 626 l 965 418 l 390 418 q 317 388 347 418 q 286 314 286 357 l 286 0 l 76 0 l 76 314 z "},"e":{"ha":1143,"x_min":71,"x_max":1054,"o":"m 1054 838 l 381 838 q 325 822 347 838 q 292 783 303 806 q 280 732 281 760 q 290 681 279 704 q 324 642 301 658 q 381 626 346 626 l 1054 626 l 1054 418 l 381 418 q 306 385 331 418 q 281 313 281 353 q 306 241 281 274 q 381 208 331 208 l 1054 208 l 1054 1 l 381 1 q 207 52 278 1 q 103 180 136 103 q 81 349 71 257 q 147 526 90 442 q 88 632 106 575 q 75 747 71 689 q 102 858 79 804 q 165 952 125 911 q 260 1018 206 993 q 381 1043 314 1043 l 1054 1043 l 1054 838 z "},"d":{"ha":1146,"x_min":74,"x_max":1069,"o":"m 74 1043 l 485 1043 q 724 1009 624 1043 q 896 915 825 975 q 1019 749 978 846 q 1065 548 1061 651 q 1037 344 1069 444 q 936 171 1004 244 q 761 53 865 99 q 504 1 657 7 l 468 1 l 74 1 l 74 208 l 468 208 l 496 208 q 674 240 603 211 q 786 313 744 268 q 845 419 828 358 q 859 542 863 479 q 831 661 856 604 q 763 757 806 718 q 653 816 721 794 q 485 838 585 838 l 74 838 l 74 1043 z "},"c":{"ha":1215,"x_min":67,"x_max":1143,"o":"m 613 1063 q 824 1020 726 1063 q 1000 906 922 978 q 1088 792 1051 854 q 1143 658 1124 731 l 922 658 q 893 713 911 688 q 853 758 875 738 q 747 829 808 803 q 613 856 685 856 q 480 829 542 856 q 374 758 418 803 q 301 654 328 714 q 275 528 275 594 q 301 397 275 457 q 374 292 328 336 q 480 220 418 244 q 613 196 542 196 q 747 220 685 196 q 853 292 808 244 q 922 389 899 335 l 1143 389 q 1088 256 1124 318 q 1000 143 1051 194 q 824 29 922 71 q 613 -12 726 -12 q 400 29 497 -12 q 228 143 303 71 q 110 316 153 218 q 67 528 67 414 q 110 735 67 638 q 228 906 153 833 q 400 1020 303 978 q 613 1063 497 1063 z "},"b":{"ha":1172,"x_min":75,"x_max":1114,"o":"m 75 1043 l 799 1043 q 921 1018 865 1043 q 1017 952 976 993 q 1083 858 1058 911 q 1110 747 1107 804 q 1095 632 1114 689 q 1032 526 1076 575 q 1091 421 1071 478 q 1111 306 1111 364 q 1089 192 1111 247 q 1022 94 1067 138 q 922 26 978 51 q 799 1 865 1 l 75 1 l 75 208 l 799 208 q 876 241 850 208 q 903 313 903 274 q 877 385 903 353 q 799 418 851 418 l 75 418 l 75 626 l 799 626 q 856 642 833 626 q 891 681 879 658 q 903 732 903 704 q 892 783 903 760 q 857 822 881 806 q 799 838 833 838 l 75 838 l 75 1043 z "},"a":{"ha":1501,"x_min":15,"x_max":1483,"o":"m 15 0 l 401 818 q 493 943 438 893 q 614 1018 549 993 q 749 1044 679 1043 q 883 1019 818 1044 q 1003 944 947 994 q 1096 818 1058 893 l 1483 0 l 1251 0 l 910 729 q 837 810 881 783 q 747 838 793 838 q 659 810 701 838 q 589 729 617 783 l 243 0 l 15 0 z "},"$":{"ha":1142,"x_min":65,"x_max":1068,"o":"m 1010 824 q 833 823 917 824 q 671 822 750 822 l 671 622 l 760 622 q 931 578 863 622 q 1034 467 1000 533 q 1068 322 1068 400 q 1034 178 1068 244 q 931 67 1000 111 q 760 22 863 22 l 671 22 l 671 -93 l 463 -93 l 463 22 l 132 22 l 132 219 q 303 220 224 219 q 463 221 383 221 l 463 424 l 372 424 q 201 468 269 424 q 99 579 133 513 q 65 723 65 646 q 99 867 65 800 q 201 978 133 933 q 372 1022 269 1022 l 463 1022 l 463 1138 l 464 1138 l 671 1138 l 671 1022 l 1010 1022 l 1010 824 m 463 822 l 372 822 q 297 791 322 822 q 271 722 271 760 q 297 653 271 685 q 372 622 322 622 l 463 622 l 463 822 m 671 222 l 760 222 q 835 253 810 222 q 861 322 861 285 q 835 391 861 360 q 760 422 810 422 l 671 422 l 671 222 z "},"€":{"ha":1014,"x_min":63,"x_max":961,"o":"m 394 338 q 417 311 404 322 q 531 237 460 265 q 710 206 601 208 q 755 205 718 206 q 835 204 792 204 q 915 204 878 204 q 960 204 951 204 l 961 -1 l 738 -1 q 607 6 671 -1 q 483 33 543 14 q 369 84 424 51 q 268 168 315 117 q 165 338 200 240 l 63 338 l 63 493 l 136 493 q 136 567 133 529 l 63 567 l 63 722 l 171 722 q 226 828 193 779 q 307 918 260 878 q 469 1011 369 974 q 717 1049 568 1049 l 953 1049 l 953 838 l 721 838 q 552 817 619 838 q 440 758 485 796 q 422 741 431 750 q 406 722 414 732 l 785 722 l 785 567 l 346 567 q 343 529 343 547 q 344 493 343 511 l 785 493 l 785 338 l 394 338 z "},"¥":{"ha":1300,"x_min":33,"x_max":1267,"o":"m 1267 1043 l 996 481 q 951 405 976 438 q 893 344 925 372 l 1114 344 l 1114 239 l 756 239 l 756 182 l 1114 182 l 1114 76 l 756 76 l 756 -3 l 546 -3 l 546 76 l 185 76 l 185 78 l 185 182 l 546 182 l 546 239 l 185 239 l 185 240 l 185 344 l 404 344 q 348 405 374 372 q 301 481 322 438 l 33 1043 l 263 1043 l 489 571 q 561 488 518 515 q 650 460 604 460 q 739 488 696 460 q 810 571 782 515 l 1036 1043 l 1267 1043 z "},"£":{"ha":1326,"x_min":71,"x_max":1243,"o":"m 1243 0 l 71 0 l 71 207 l 251 207 q 325 238 294 207 q 356 314 356 269 l 354 421 l 167 421 l 167 626 l 354 626 l 354 729 q 379 858 358 800 q 439 957 400 917 q 535 1019 478 997 q 668 1042 592 1042 l 1243 1042 l 1243 833 l 668 833 q 594 803 625 833 q 564 729 564 772 l 564 626 l 1051 626 l 1051 421 l 563 421 l 563 314 q 544 206 558 253 l 1243 206 l 1243 0 z "},"¤":{"ha":1224,"x_min":44,"x_max":1174,"o":"m 688 965 q 857 944 786 964 l 904 1043 l 1135 1043 l 1039 846 q 1135 707 1101 788 q 1171 540 1168 626 q 1147 372 1174 454 q 1061 226 1119 289 l 1036 203 l 1135 0 l 904 0 l 854 106 q 717 85 785 85 l 551 85 q 451 90 500 85 q 354 107 401 94 l 304 0 l 74 0 l 174 210 l 158 226 q 72 369 100 288 q 47 536 44 451 q 80 701 49 621 q 172 839 111 781 l 74 1043 l 304 1043 l 351 942 q 436 959 390 953 q 535 965 482 965 l 688 965 m 688 278 q 824 302 769 281 q 911 360 878 324 q 957 440 943 393 q 969 537 971 488 q 947 632 967 586 q 893 707 928 678 q 807 752 860 736 q 676 768 754 768 l 543 768 q 412 752 464 768 q 325 707 360 736 q 272 632 290 678 q 250 537 253 586 q 261 440 247 488 q 306 360 275 393 q 395 302 340 324 q 533 278 450 281 q 688 278 607 274 z "},"×":{"ha":736,"x_min":56,"x_max":678,"o":"m 678 215 l 504 215 l 444 343 q 405 397 425 382 q 365 408 385 411 q 328 384 346 404 q 296 335 310 364 l 240 215 l 56 215 l 165 443 q 218 514 186 486 q 165 586 186 542 l 56 814 l 240 814 l 296 694 q 328 645 310 665 q 365 622 346 625 q 405 633 385 618 q 444 686 425 647 l 504 814 l 678 814 l 568 586 q 545 547 558 565 q 518 514 532 529 q 545 481 532 499 q 568 443 558 463 l 678 215 z "},"÷":{"ha":890,"x_min":97,"x_max":817,"o":"m 817 419 l 97 419 l 97 628 l 817 628 l 817 626 l 817 419 m 551 319 l 551 125 l 343 125 l 343 319 l 344 319 l 551 319 m 551 921 l 551 726 l 343 726 l 343 921 l 344 921 l 551 921 z "},"X":{"ha":1157,"x_min":56,"x_max":1117,"o":"m 1117 1043 l 931 657 q 885 583 911 617 q 831 526 858 550 q 885 463 858 497 q 931 388 911 428 l 1117 0 l 886 0 l 747 296 q 676 379 719 351 q 587 407 633 407 q 497 379 540 407 q 425 296 454 351 l 286 0 l 56 0 l 242 388 q 344 519 282 469 q 242 657 281 576 l 56 1043 l 286 1043 l 425 749 q 497 665 454 693 q 587 638 540 638 q 676 665 633 638 q 747 749 719 693 l 886 1043 l 1117 1043 z "},"V":{"ha":1503,"x_min":19,"x_max":1488,"o":"m 1488 1043 l 1101 226 q 1010 101 1065 151 q 889 26 954 51 q 754 0 824 0 q 620 25 685 0 q 500 100 556 50 q 408 226 444 150 l 19 1043 l 251 1043 l 594 318 q 666 235 624 263 q 754 207 708 207 q 842 235 800 207 q 914 318 885 263 l 1260 1043 l 1488 1043 z "},"O":{"ha":1181,"x_min":42,"x_max":1132,"o":"m 588 1063 q 799 1019 700 1063 q 972 901 897 975 q 1089 731 1046 828 q 1132 528 1132 635 q 1088 315 1132 414 q 968 144 1043 217 q 794 29 893 71 q 588 -12 696 -12 q 373 31 472 -12 q 200 149 274 75 q 84 321 126 222 q 42 528 42 419 q 87 739 42 642 q 208 908 132 836 q 382 1022 283 981 q 588 1063 481 1063 m 588 856 q 456 829 518 856 q 348 758 394 803 q 274 654 301 714 q 247 528 247 594 q 276 393 247 454 q 352 288 304 332 q 461 220 400 244 q 588 196 522 196 q 720 222 658 196 q 828 294 782 249 q 900 399 874 339 q 926 528 926 460 q 897 659 926 599 q 820 763 868 719 q 711 831 772 807 q 588 856 650 856 z "},"F":{"ha":1049,"x_min":76,"x_max":965,"o":"m 965 838 l 81 838 l 81 1043 l 965 1043 l 965 838 m 76 314 q 101 443 81 385 q 161 542 122 501 q 257 604 200 582 q 390 626 314 626 l 965 626 l 965 418 l 390 418 q 317 388 347 418 q 286 314 286 357 l 286 0 l 76 0 l 76 314 z "},"E":{"ha":1143,"x_min":71,"x_max":1054,"o":"m 1054 838 l 381 838 q 325 822 347 838 q 292 783 303 806 q 280 732 281 760 q 290 681 279 704 q 324 642 301 658 q 381 626 346 626 l 1054 626 l 1054 418 l 381 418 q 306 385 331 418 q 281 313 281 353 q 306 241 281 274 q 381 208 331 208 l 1054 208 l 1054 1 l 381 1 q 207 52 278 1 q 103 180 136 103 q 81 349 71 257 q 147 526 90 442 q 88 632 106 575 q 75 747 71 689 q 102 858 79 804 q 165 952 125 911 q 260 1018 206 993 q 381 1043 314 1043 l 1054 1043 l 1054 838 z "},"D":{"ha":1146,"x_min":74,"x_max":1069,"o":"m 74 1043 l 485 1043 q 724 1009 624 1043 q 896 915 825 975 q 1019 749 978 846 q 1065 548 1061 651 q 1037 344 1069 444 q 936 171 1004 244 q 761 53 865 99 q 504 1 657 7 l 468 1 l 74 1 l 74 208 l 468 208 l 496 208 q 674 240 603 211 q 786 313 744 268 q 845 419 828 358 q 859 542 863 479 q 831 661 856 604 q 763 757 806 718 q 653 816 721 794 q 485 838 585 838 l 74 838 l 74 1043 z "},"C":{"ha":1215,"x_min":67,"x_max":1143,"o":"m 613 1063 q 824 1020 726 1063 q 1000 906 922 978 q 1088 792 1051 854 q 1143 658 1124 731 l 922 658 q 893 713 911 688 q 853 758 875 738 q 747 829 808 803 q 613 856 685 856 q 480 829 542 856 q 374 758 418 803 q 301 654 328 714 q 275 528 275 594 q 301 397 275 457 q 374 292 328 336 q 480 220 418 244 q 613 196 542 196 q 747 220 685 196 q 853 292 808 244 q 922 389 899 335 l 1143 389 q 1088 256 1124 318 q 1000 143 1051 194 q 824 29 922 71 q 613 -12 726 -12 q 400 29 497 -12 q 228 143 303 71 q 110 316 153 218 q 67 528 67 414 q 110 735 67 638 q 228 906 153 833 q 400 1020 303 978 q 613 1063 497 1063 z "},"B":{"ha":1172,"x_min":75,"x_max":1114,"o":"m 75 1043 l 799 1043 q 921 1018 865 1043 q 1017 952 976 993 q 1083 858 1058 911 q 1110 747 1107 804 q 1095 632 1114 689 q 1032 526 1076 575 q 1091 421 1071 478 q 1111 306 1111 364 q 1089 192 1111 247 q 1022 94 1067 138 q 922 26 978 51 q 799 1 865 1 l 75 1 l 75 208 l 799 208 q 876 241 850 208 q 903 313 903 274 q 877 385 903 353 q 799 418 851 418 l 75 418 l 75 626 l 799 626 q 856 642 833 626 q 891 681 879 658 q 903 732 903 704 q 892 783 903 760 q 857 822 881 806 q 799 838 833 838 l 75 838 l 75 1043 z "},"A":{"ha":1501,"x_min":15,"x_max":1483,"o":"m 15 0 l 401 818 q 493 943 438 893 q 614 1018 549 993 q 749 1044 679 1043 q 883 1019 818 1044 q 1003 944 947 994 q 1096 818 1058 893 l 1483 0 l 1251 0 l 910 729 q 837 810 881 783 q 747 838 793 838 q 659 810 701 838 q 589 729 617 783 l 243 0 l 15 0 z "},"±":{"ha":890,"x_min":97,"x_max":817,"o":"m 353 324 l 353 579 l 97 579 l 97 788 l 353 788 l 353 1043 l 561 1043 l 561 788 l 817 788 l 817 579 l 561 579 l 561 324 l 353 324 m 817 0 l 97 0 l 97 208 l 817 208 l 817 207 l 817 0 z "},":":{"ha":357,"x_min":71,"x_max":279,"o":"m 279 636 l 279 442 l 71 442 l 71 636 l 72 636 l 279 636 m 279 194 l 279 0 l 71 0 l 71 194 l 72 194 l 279 194 z "},"™":{"ha":1118,"x_min":63,"x_max":1033,"o":"m 1031 679 l 957 679 l 957 911 q 953 951 958 940 q 939 960 947 963 q 921 943 931 957 q 903 911 911 929 l 800 679 l 718 679 l 614 911 q 596 943 606 929 q 578 960 586 957 q 565 951 569 963 q 560 911 560 940 l 561 679 l 486 679 q 486 747 486 704 q 486 832 486 790 q 487 905 486 874 q 488 936 488 936 q 508 1027 485 994 q 567 1057 531 1060 q 626 1028 599 1054 q 681 944 653 1001 l 758 769 l 836 944 q 891 1028 864 1001 q 951 1057 918 1054 q 1010 1027 986 1060 q 1031 936 1033 994 l 1031 679 m 286 981 l 286 679 l 213 679 l 213 981 l 63 981 l 63 1054 l 438 1054 l 438 981 l 286 981 z "},"©":{"ha":1181,"x_min":42,"x_max":1132,"o":"m 588 1063 q 799 1019 700 1063 q 972 901 897 975 q 1089 731 1046 828 q 1132 528 1132 635 q 1088 315 1132 414 q 968 144 1043 217 q 794 29 893 71 q 588 -12 696 -12 q 373 31 472 -12 q 200 149 274 75 q 84 321 126 222 q 42 528 42 419 q 87 739 42 642 q 208 908 132 836 q 382 1022 283 981 q 588 1063 481 1063 m 590 911 q 438 881 510 911 q 311 798 365 850 q 225 676 257 746 q 193 528 193 606 q 226 371 193 442 q 315 249 260 300 q 442 169 371 197 q 590 140 514 140 q 744 172 672 140 q 870 256 817 203 q 955 378 924 308 q 986 528 986 449 q 952 681 986 611 q 862 803 918 751 q 735 883 806 854 q 590 911 664 911 m 594 807 q 706 785 654 807 q 799 725 758 763 q 844 666 825 699 q 874 596 864 633 l 757 596 q 742 624 750 611 q 722 649 733 636 q 665 686 699 672 q 594 700 632 700 q 525 686 558 700 q 468 649 492 672 q 431 594 444 625 q 417 526 417 563 q 431 457 417 489 q 468 401 444 425 q 594 351 518 351 q 722 401 672 351 q 742 426 733 414 q 757 453 750 439 l 874 453 q 844 384 864 417 q 799 325 825 351 q 706 265 758 286 q 594 243 654 243 q 483 265 535 243 q 392 325 432 286 q 331 415 353 364 q 308 526 308 465 q 331 635 308 585 q 392 725 353 686 q 483 785 432 763 q 594 807 535 807 z "},"®":{"ha":785,"x_min":42,"x_max":738,"o":"m 390 1063 q 524 1035 461 1063 q 635 960 588 1007 q 710 851 682 913 q 738 721 738 789 q 709 585 738 649 q 633 476 681 522 q 522 403 585 429 q 390 376 458 376 q 253 404 317 376 q 142 479 189 432 q 69 589 96 526 q 42 721 42 651 q 71 856 42 793 q 148 964 100 918 q 259 1036 196 1010 q 390 1063 322 1063 m 390 969 q 291 949 338 969 q 209 895 244 929 q 153 816 174 861 q 132 721 132 771 q 154 619 132 665 q 213 540 176 574 q 295 489 249 507 q 390 471 342 471 q 490 491 443 471 q 572 545 538 511 q 627 624 607 579 q 647 721 647 669 q 625 821 647 775 q 566 899 603 867 q 483 951 529 932 q 390 969 438 969 m 458 888 q 522 867 497 888 q 553 817 546 846 q 553 757 561 788 q 521 707 544 726 q 544 631 544 672 l 544 551 l 478 551 l 478 631 q 466 663 478 643 q 422 686 454 683 l 336 686 q 313 676 322 686 q 303 653 303 667 l 303 551 l 236 551 q 235 601 236 576 q 235 653 235 626 q 263 726 238 699 q 336 754 288 754 l 458 754 q 483 765 475 754 q 490 788 490 775 q 483 810 490 800 q 458 821 475 821 q 347 822 401 821 q 236 822 293 822 l 236 888 l 458 888 z "},"¢":{"ha":1093,"x_min":64,"x_max":1021,"o":"m 642 1043 l 642 994 q 777 946 714 979 q 893 864 840 913 q 972 763 939 818 q 1021 643 1004 708 l 825 643 q 763 732 804 694 q 642 806 711 783 l 642 244 q 763 318 711 265 q 798 358 782 336 q 825 404 814 381 l 1021 404 q 893 185 988 279 q 777 103 840 136 q 642 56 714 69 l 642 0 l 435 0 l 435 60 q 311 108 368 75 q 207 185 254 140 q 102 339 140 251 q 64 528 64 426 q 102 712 64 625 q 207 864 140 799 q 311 941 254 908 q 435 989 368 974 l 435 1043 l 642 1043 m 336 318 q 435 253 378 274 l 435 797 q 336 732 378 774 q 272 640 296 692 q 249 528 249 588 q 272 412 249 465 q 336 318 296 358 z "},"’":{"ha":381,"x_min":54,"x_max":329,"o":"m 54 686 l 119 1049 l 328 1049 l 329 1049 l 264 686 l 54 686 z "},"‘":{"ha":381,"x_min":54,"x_max":329,"o":"m 119 686 l 54 1049 l 56 1049 l 264 1049 l 329 686 l 119 686 z "},"”":{"ha":699,"x_min":54,"x_max":629,"o":"m 54 686 l 119 1049 l 328 1049 l 329 1049 l 264 686 l 54 686 m 354 686 l 419 1049 l 628 1049 l 629 1049 l 564 686 l 354 686 z "},"“":{"ha":699,"x_min":65,"x_max":640,"o":"m 431 686 l 365 1049 l 367 1049 l 575 1049 l 640 686 l 431 686 m 131 686 l 65 1049 l 67 1049 l 275 1049 l 340 686 l 131 686 z "},"_":{"ha":1038,"x_min":97,"x_max":940,"o":"m 940 -1 l 97 -1 l 97 207 l 940 207 l 940 206 l 940 -1 z "}}}
